<svg display="none" xmlns="http://www.w3.org/2000/svg">
    <symbol id="prev" viewBox="0 0 343.089 343.089">
        <g>
            <path d="M239.122,124.473h-125.91V72.228c-0.057-4.328-3.611-7.79-7.939-7.733c-2.146,0.028-4.186,0.935-5.645,2.509
				L2.452,166.269c-2.885,2.397-3.281,6.679-0.885,9.564c0.267,0.321,0.563,0.618,0.885,0.885l97.176,99.265
				c1.501,1.588,3.563,2.526,5.747,2.612h3.135c2.983-1.448,4.828-4.523,4.702-7.837v-47.02h125.91
				c5.262-0.892,9.305-5.148,9.927-10.449v-83.592C249.048,125.518,243.824,124.473,239.122,124.473z"/>
            <path d="M272.558,121.86c-4.328,0-7.837,3.509-7.837,7.837v83.592c0,4.328,3.509,7.837,7.837,7.837s7.837-3.509,7.837-7.837
				v-83.592C280.395,125.369,276.887,121.86,272.558,121.86z"/>
            <path d="M303.905,121.86c-4.328,0-7.837,3.509-7.837,7.837v83.592c0,4.328,3.509,7.837,7.837,7.837s7.837-3.509,7.837-7.837
				v-83.592C311.742,125.369,308.233,121.86,303.905,121.86z"/>
            <path d="M335.252,121.86c-4.328,0-7.837,3.509-7.837,7.837v83.592c0,4.328,3.509,7.837,7.837,7.837s7.837-3.509,7.837-7.837
				v-83.592C343.089,125.369,339.58,121.86,335.252,121.86z"/>
        </g>
    </symbol>
    <symbol id="next" viewBox="0 0 343.089 343.089">
        <g>
            <path d="M341.521,167.415c-0.267-0.321-0.563-0.618-0.885-0.885l-97.176-99.265c-2.942-3.174-7.901-3.362-11.075-0.42
				c-1.574,1.459-2.481,3.499-2.509,5.645v52.245h-125.91c-4.702,0-9.927,1.045-9.927,5.224v83.592
				c0.621,5.301,4.664,9.557,9.927,10.449h125.91v47.02c0.076,3.126,1.89,5.947,4.702,7.314h3.135
				c2.183-0.086,4.246-1.024,5.747-2.612l97.176-98.743C343.522,174.582,343.918,170.3,341.521,167.415z"/>
            <path d="M70.531,122.122c-4.328,0-7.837,3.509-7.837,7.837v83.592c0,4.328,3.509,7.837,7.837,7.837s7.837-3.509,7.837-7.837
				v-83.592C78.367,125.63,74.859,122.122,70.531,122.122z"/>
            <path d="M39.184,122.122c-4.328,0-7.837,3.509-7.837,7.837v83.592c0,4.328,3.509,7.837,7.837,7.837s7.837-3.509,7.837-7.837
				v-83.592C47.02,125.63,43.512,122.122,39.184,122.122z"/>
            <path d="M7.837,122.122c-4.328,0-7.837,3.509-7.837,7.837v83.592c0,4.328,3.509,7.837,7.837,7.837
				c4.328,0,7.837-3.509,7.837-7.837v-83.592C15.673,125.63,12.165,122.122,7.837,122.122z"/>
        </g>
    </symbol>
</svg>