<svg id="Слой_1" data-name="Слой 1" xmlns="http://www.w3.org/2000/svg" viewBox="0 0 100 24.04"><defs><style>.cls-1{isolation:isolate;}.cls-2{fill:#ef7f1a;}</style></defs><title>logo2</title><g class="cls-1"><g class="cls-1"><path d="M10.58,2c.09-.27.15-.49.49-.49h2v21c0,.49,0,.49-2.51.49l.09-7.51c.06-2.94.49-8.34.55-9.14-.61,2.33-1.75,6.32-2,7L7.57,18.05a.34.34,0,0,1-.33.25H6.16l-1.59-5c-.21-.64-1.32-4.56-2-6.92l0,0s.52,5.7.61,8.92V22.5c0,.49-.12.49-2.42.49V2c0-.46.21-.49.49-.49H3L6,10.85c.4,1.23,1,3.4,1,3.4s.55-2.17.89-3.31Z"/><path d="M21.21,1.23c4,0,5.43,2.54,5.43,10.82S24.89,23.3,20.88,23.3,15.33,21,15.33,12.14C15.33,4,17.23,1.23,21.21,1.23ZM21,20.75c2.24,0,3-2.39,3-8.64s-.61-8.34-2.82-8.34-3,2.33-3,9C18.12,18.48,18.76,20.75,21,20.75Z"/><path d="M37.37,2c0-.49.06-.49,2.48-.49v21a.46.46,0,0,1-.52.49H37.49L34,14.56c-.52-1.38-2.14-6.31-2.91-8.71.18,2,.31,7.91.31,9.2V22.5c0,.49,0,.49-2.46.49V2c0-.33.16-.49.5-.49h1.87l3.46,8.28c.61,1.56,2.18,6.37,2.94,8.67v-.06c-.21-1.81-.3-7.75-.3-9.16Z"/></g><g class="cls-1"><path d="M48,1.23c4,0,5.42,2.54,5.42,10.82S51.64,23.3,47.63,23.3,42.08,21,42.08,12.14C42.08,4,44,1.23,48,1.23Zm-.25,19.52c2.24,0,3-2.39,3-8.64s-.61-8.34-2.82-8.34-3,2.33-3,9C44.87,18.48,45.51,20.75,47.72,20.75Z"/></g><g class="cls-1"><path class="cls-2" d="M64.49,1.53V3.34c0,.4-.15.52-.52.52H60.2V22.5c0,.49-.06.49-2.49.49V3.86H53.54V2c0-.33.16-.49.53-.49Z"/><path class="cls-2" d="M73.84,20.75c0,2.09,0,2.24-.49,2.24H66.11V2a.48.48,0,0,1,.49-.49H74c0,2,0,2.24-.46,2.24H68.56v6.41h4.63c0,1.87,0,2.27-.46,2.27H68.56v8.3Z"/></g><g class="cls-1"><path class="cls-2" d="M83.25,1.69a7.4,7.4,0,0,1,1.56-.19c.73,0,1.1.15,1.1.46a.78.78,0,0,1-.09.28l-5,8.55c2.43,1.84,4.11,5.76,4.94,11.65,0,.46-.15.61-1,.61-.52,0-1.11,0-1.72-.09-.89-4.81-1.75-7.88-3.49-9.72a3.31,3.31,0,0,0-1.23-.83V22.5c0,.49,0,.49-2.51.49V2c0-.49,0-.49,2.51-.49v9.23Z"/></g><g class="cls-1"><path class="cls-2" d="M99.48,22.53c.06.34-.09.52-1.07.52-.34,0-.83,0-1.47-.06l-1.29-5.46H90.32l-1.2,5c-.09.34-.18.49-1.16.49-.31,0-.95,0-1.54-.09L91.91,1.87c.06-.31.4-.43.92-.43A6.63,6.63,0,0,1,94,1.53ZM95.1,15.3l-1-4.42A47.68,47.68,0,0,1,93,5a59.91,59.91,0,0,1-1.1,5.92l-1,4.42Z"/></g></g></svg>