<svg id="Layer_1" data-name="Layer 1" xmlns="http://www.w3.org/2000/svg" viewBox="0 0 1944.11 492"><title>next</title><path d="M822.74,220.67c-.73,13.33-.37,26.65-1.75,40a105.75,105.75,0,0,1-1.21,22,130.85,130.85,0,0,0-.49,14l847.4-6.59c.77,9-.83,88.54-.84,90.85l-.36,72.2a3.81,3.81,0,0,0,3.79,4,3.89,3.89,0,0,0,2.39-.82l262.4-206a3.82,3.82,0,0,0,1.46-3,3.88,3.88,0,0,0-1.44-3L1673.78,35.82a3.82,3.82,0,0,0-4.16-.41,4,4,0,0,0-2,3.58l-.36,72.19c0,2.31.49,84.93-1.82,84.92L824,191.39C827.08,201.11,822.73,211.2,822.74,220.67Z"/><rect x="8.65" y="135.29" width="1660.36" height="222.73" transform="translate(1677.83 492.75) rotate(179.96)"/></svg>