<?xml version="1.0" standalone="no"?>
<!DOCTYPE svg PUBLIC "-//W3C//DTD SVG 20010904//EN"
 "http://www.w3.org/TR/2001/REC-SVG-20010904/DTD/svg10.dtd">
<svg version="1.0" xmlns="http://www.w3.org/2000/svg"
 width="700.000000pt" height="700.000000pt" viewBox="0 0 700.000000 700.000000"
 preserveAspectRatio="xMidYMid meet">
<metadata>
Created by potrace 1.11, written by Peter Selinger 2001-2013
</metadata>
<g transform="translate(0.000000,700.000000) scale(0.100000,-0.100000)"
fill="#000000" stroke="none">
<path d="M1020 3732 l0 -2757 362 2 c200 1 369 2 376 2 9 1 12 492 12 2419 l1
2417 80 -205 c44 -113 84 -215 89 -227 18 -42 28 -67 99 -248 129 -333 221
-569 306 -785 46 -118 154 -393 239 -610 84 -217 184 -471 220 -565 108 -275
176 -450 311 -795 70 -179 131 -329 136 -334 5 -6 165 -10 390 -10 l381 -1 16
30 c8 16 34 79 57 140 82 213 147 380 160 410 7 17 51 129 98 250 47 121 110
283 140 360 123 314 488 1247 522 1335 20 52 40 104 45 115 5 11 79 200 165
420 85 220 159 409 164 420 5 11 27 65 48 120 21 55 45 115 53 133 15 29 16
-185 15 -2360 0 -1316 1 -2402 3 -2413 3 -20 10 -20 345 -18 188 1 358 2 377
2 l35 1 -1 2753 -1 2752 -579 0 -578 0 -122 -310 c-213 -546 -424 -1085 -499
-1275 -40 -102 -114 -291 -165 -420 -50 -129 -104 -266 -120 -305 -15 -38 -67
-171 -115 -295 -48 -124 -93 -239 -101 -257 -8 -17 -14 -34 -14 -38 0 -3 -8
-25 -19 -48 -10 -23 -53 -132 -95 -242 -43 -110 -91 -231 -106 -270 -16 -38
-44 -108 -62 -155 -18 -47 -37 -94 -43 -106 -11 -22 -7 -32 -534 1326 -67 173
-126 324 -131 335 -5 11 -19 45 -30 75 -11 30 -25 64 -30 75 -5 11 -25 61 -43
110 -30 79 -118 306 -270 695 -25 63 -62 158 -82 210 -20 52 -65 167 -100 255
-86 221 -198 507 -226 582 l-24 63 -577 -1 -578 0 0 -2757z"/>
</g>
</svg>
